<svg xmlns="http://www.w3.org/2000/svg" xmlns:xlink="http://www.w3.org/1999/xlink" id="Layer_1" x="0" y="0" enable-background="new 0 0 455 400" version="1.1" viewBox="0 0 455 400" xml:space="preserve"><metadata><sfw xmlns="http://ns.adobe.com/SaveForWeb/1.0/"><slices/><sliceSourceBounds width="443.9" height="393.1" x="1.5" y="-393.6" bottomLeftOrigin="true"/></sfw></metadata><g id="Article_1"><g id="Body"><path id="Placeholder" fill="#FFF" stroke="#010101" stroke-miterlimit="10" stroke-width="2" d="M6.5,53.4h441.9l0,0v338.1 c0,2.3-1.8,4-4,4H10.6c-2.3,0-4-1.8-4-4L6.5,53.4L6.5,53.4z"/><g><line x1="307.9" x2="373.1" y1="100.3" y2="100.3" fill="none" stroke="#010101" stroke-miterlimit="10" stroke-width="2"/><line x1="307.9" x2="385.4" y1="169.5" y2="169.5" fill="none" stroke="#010101" stroke-miterlimit="10" stroke-width="2"/><line x1="307.9" x2="401.6" y1="124.7" y2="124.7" fill="none" stroke="#010101" stroke-miterlimit="10" stroke-width="2"/><line x1="307.9" x2="360.9" y1="193.9" y2="193.9" fill="none" stroke="#010101" stroke-miterlimit="10" stroke-width="2"/><line x1="307.9" x2="373.1" y1="145.1" y2="145.1" fill="none" stroke="#010101" stroke-miterlimit="10" stroke-width="2"/><line x1="307.9" x2="373.1" y1="218.4" y2="218.4" fill="none" stroke="#010101" stroke-miterlimit="10" stroke-width="2"/><line x1="307.9" x2="348.7" y1="242.8" y2="242.8" fill="none" stroke="#010101" stroke-miterlimit="10" stroke-width="2"/></g><g><line x1="51.3" x2="246.8" y1="173.6" y2="173.6" fill="none" stroke="#010101" stroke-miterlimit="10" stroke-width="2"/><line x1="51.3" x2="230.5" y1="124.7" y2="124.7" fill="none" stroke="#010101" stroke-miterlimit="10" stroke-width="2"/><line x1="51.3" x2="230.5" y1="198" y2="198" fill="none" stroke="#010101" stroke-miterlimit="10" stroke-width="2"/><line x1="51.3" x2="161.3" y1="149.1" y2="149.1" fill="none" stroke="#010101" stroke-miterlimit="10" stroke-width="2"/><line x1="51.3" x2="246.8" y1="222.5" y2="222.5" fill="none" stroke="#010101" stroke-miterlimit="10" stroke-width="2"/><line x1="51.3" x2="246.8" y1="271.3" y2="271.3" fill="none" stroke="#010101" stroke-miterlimit="10" stroke-width="2"/><line x1="51.3" x2="230.5" y1="246.9" y2="246.9" fill="none" stroke="#010101" stroke-miterlimit="10" stroke-width="2"/><line x1="51.3" x2="230.5" y1="295.7" y2="295.7" fill="none" stroke="#010101" stroke-miterlimit="10" stroke-width="2"/><line x1="51.3" x2="246.8" y1="344.6" y2="344.6" fill="none" stroke="#010101" stroke-miterlimit="10" stroke-width="2"/><line x1="51.3" x2="161.3" y1="320.2" y2="320.2" fill="none" stroke="#010101" stroke-miterlimit="10" stroke-width="2"/><g><line x1="51.3" x2="246.8" y1="98.2" y2="98.2" fill="none" stroke="#010101" stroke-miterlimit="10" stroke-width="2"/></g></g></g><g id="Header"><path fill="#FFF" stroke="#010101" stroke-miterlimit="10" stroke-width="2" d="M18.7,4.4h417.5c6.8,0,12.2,5.4,12.2,12.2v36.6 l0,0H6.5l0,0V16.7C6.5,9.9,12,4.4,18.7,4.4z"/><g><circle cx="402.6" cy="26.6" r="9.9" fill="#ECC85E" stroke="#010101" stroke-miterlimit="10" stroke-width="2"/><circle cx="346.2" cy="26.6" r="9.9" fill="#E81D25" stroke="#010101" stroke-miterlimit="10" stroke-width="2"/><circle cx="374" cy="26.6" r="9.9" fill="#83A28A" stroke="#010101" stroke-miterlimit="10" stroke-width="2"/></g><text fill="#414042" font-family="'ArialMT'" font-size="36" transform="matrix(1 0 0 1 46.6356 20)">ARTICLE</text></g></g></svg>