<svg xmlns="http://www.w3.org/2000/svg" xmlns:xlink="http://www.w3.org/1999/xlink" id="Layer_1" x="0" y="0" enable-background="new 0 0 455 400" version="1.1" viewBox="0 0 455 400" xml:space="preserve"><metadata><sfw xmlns="http://ns.adobe.com/SaveForWeb/1.0/"><slices/><sliceSourceBounds width="443.9" height="393.1" x="5.5" y="-396.6" bottomLeftOrigin="true"/></sfw></metadata><g id="Article_1"><g id="Body"><path id="Placeholder" fill="#FFF" stroke="#000" stroke-miterlimit="10" stroke-width="2" d="M6.5,54.2h440.9l0,0v337.3 c0,2.2-1.8,4.1-4.1,4.1H10.6c-2.2,0-4.1-1.8-4.1-4.1V54.2L6.5,54.2z"/><g><rect width="122.8" height="122.8" x="39.6" y="240.5" fill="#F1F2F2" stroke="#000" stroke-miterlimit="10" stroke-width="2"/><line x1="198.5" x2="393.6" y1="259.4" y2="259.4" fill="#FFF" stroke="#000" stroke-miterlimit="10" stroke-width="2"/><line x1="198.5" x2="393.6" y1="324.5" y2="324.5" fill="#FFF" stroke="#000" stroke-miterlimit="10" stroke-width="2"/><line x1="198.5" x2="377.3" y1="283.8" y2="283.8" fill="#FFF" stroke="#000" stroke-miterlimit="10" stroke-width="2"/><line x1="198.5" x2="377.3" y1="348.8" y2="348.8" fill="#FFF" stroke="#000" stroke-miterlimit="10" stroke-width="2"/><line x1="198.5" x2="308.2" y1="304.1" y2="304.1" fill="#FFF" stroke="#000" stroke-miterlimit="10" stroke-width="2"/></g><g><rect width="122.8" height="122.8" x="39.6" y="94.3" fill="#F1F2F2" stroke="#000" stroke-miterlimit="10" stroke-width="2"/><line x1="198.5" x2="393.6" y1="113.1" y2="113.1" fill="#FFF" stroke="#000" stroke-miterlimit="10" stroke-width="2"/><line x1="198.5" x2="393.6" y1="178.2" y2="178.2" fill="#FFF" stroke="#000" stroke-miterlimit="10" stroke-width="2"/><line x1="198.5" x2="377.3" y1="137.5" y2="137.5" fill="#FFF" stroke="#000" stroke-miterlimit="10" stroke-width="2"/><line x1="198.5" x2="377.3" y1="202.5" y2="202.5" fill="#FFF" stroke="#000" stroke-miterlimit="10" stroke-width="2"/><line x1="198.5" x2="308.2" y1="157.8" y2="157.8" fill="#FFF" stroke="#000" stroke-miterlimit="10" stroke-width="2"/></g></g><g id="Header"><path fill="#FFF" stroke="#010101" stroke-miterlimit="10" stroke-width="2" d="M18.7,4.4h417.5c6.8,0,12.2,5.4,12.2,12.2v36.6 l0,0H6.5l0,0V16.7C6.5,9.9,12,4.4,18.7,4.4z"/><g><circle cx="402.6" cy="26.6" r="9.9" fill="#ECC85E" stroke="#010101" stroke-miterlimit="10" stroke-width="2"/><circle cx="346.2" cy="26.6" r="9.9" fill="#E81D25" stroke="#010101" stroke-miterlimit="10" stroke-width="2"/><circle cx="374" cy="26.6" r="9.9" fill="#83A28A" stroke="#010101" stroke-miterlimit="10" stroke-width="2"/></g><text fill="#414042" font-family="'ArialMT'" font-size="36" transform="matrix(1 0 0 1 47.2571 20)">Blog</text></g></g></svg>