<svg xmlns="http://www.w3.org/2000/svg" xmlns:xlink="http://www.w3.org/1999/xlink" id="Layer_1" x="0" y="0" enable-background="new 0 0 455 400" version="1.1" viewBox="0 0 455 400" xml:space="preserve"><metadata><sfw xmlns="http://ns.adobe.com/SaveForWeb/1.0/"><slices/><sliceSourceBounds width="443.9" height="392.6" x="5.5" y="-396.1" bottomLeftOrigin="true"/></sfw></metadata><g id="Article_1"><g id="Body_1_"><path id="Placeholder_1_" fill="#FFF" stroke="#000" stroke-miterlimit="10" stroke-width="2" d="M6.5,53h441.9l0,0v338 c0,2.2-1.8,4.1-4.1,4.1H10.6c-2.2,0-4.1-1.8-4.1-4.1V53L6.5,53z"/><g><line x1="242.7" x2="47.3" y1="258.6" y2="258.6" fill="#FFF" stroke="#000" stroke-miterlimit="10" stroke-width="2"/><line x1="242.7" x2="47.3" y1="323.8" y2="323.8" fill="#FFF" stroke="#000" stroke-miterlimit="10" stroke-width="2"/><line x1="242.7" x2="63.5" y1="283.1" y2="283.1" fill="#FFF" stroke="#000" stroke-miterlimit="10" stroke-width="2"/><line x1="242.7" x2="63.5" y1="348.2" y2="348.2" fill="#FFF" stroke="#000" stroke-miterlimit="10" stroke-width="2"/><line x1="242.7" x2="132.8" y1="303.4" y2="303.4" fill="#FFF" stroke="#000" stroke-miterlimit="10" stroke-width="2"/><rect width="123.1" height="123.1" x="279" y="239.7" fill="#F1F2F2" stroke="#000" stroke-miterlimit="10" stroke-width="2"/></g><g><line x1="218.3" x2="413.8" y1="112" y2="112" fill="#FFF" stroke="#000" stroke-miterlimit="10" stroke-width="2"/><line x1="218.3" x2="413.8" y1="177.2" y2="177.2" fill="#FFF" stroke="#000" stroke-miterlimit="10" stroke-width="2"/><line x1="218.3" x2="397.5" y1="136.5" y2="136.5" fill="#FFF" stroke="#000" stroke-miterlimit="10" stroke-width="2"/><line x1="218.3" x2="397.5" y1="201.6" y2="201.6" fill="#FFF" stroke="#000" stroke-miterlimit="10" stroke-width="2"/><line x1="218.3" x2="328.3" y1="156.8" y2="156.8" fill="#FFF" stroke="#000" stroke-miterlimit="10" stroke-width="2"/><rect width="123.1" height="123.1" x="59" y="93.1" fill="#F1F2F2" stroke="#000" stroke-miterlimit="10" stroke-width="2"/></g></g><g id="Header"><path fill="#FFF" stroke="#010101" stroke-miterlimit="10" stroke-width="2" d="M18.7,4.4h417.5c6.8,0,12.2,5.4,12.2,12.2v36.6 l0,0H6.5l0,0V16.7C6.5,9.9,12,4.4,18.7,4.4z"/><g><circle cx="402.6" cy="26.6" r="9.9" fill="#ECC85E" stroke="#010101" stroke-miterlimit="10" stroke-width="2"/><circle cx="346.2" cy="26.6" r="9.9" fill="#E81D25" stroke="#010101" stroke-miterlimit="10" stroke-width="2"/><circle cx="374" cy="26.6" r="9.9" fill="#83A28A" stroke="#010101" stroke-miterlimit="10" stroke-width="2"/></g><text fill="#414042" font-family="'ArialMT'" font-size="36" transform="matrix(1 0 0 1 47.2571 20)">Blog</text></g></g></svg>