<svg xmlns="http://www.w3.org/2000/svg" xmlns:xlink="http://www.w3.org/1999/xlink" id="Layer_1" x="0" y="0" enable-background="new 0 0 455 400" version="1.1" viewBox="0 0 455 400" xml:space="preserve"><metadata><sfw xmlns="http://ns.adobe.com/SaveForWeb/1.0/"><slices/><sliceSourceBounds width="444.1" height="393.6" x="5.3" y="3" bottomLeftOrigin="true"/><optimizationSettings/></sfw></metadata><g id="Header"><path fill="#FFF" stroke="#010101" stroke-miterlimit="10" stroke-width="2" d="M18.7,4.4h417.5c6.8,0,12.2,5.4,12.2,12.2v36.6 l0,0H6.5l0,0V16.7C6.5,9.9,12,4.4,18.7,4.4z"/><g><circle cx="402.6" cy="26.6" r="9.9" fill="#ECC85E" stroke="#010101" stroke-miterlimit="10" stroke-width="2"/><circle cx="346.2" cy="26.6" r="9.9" fill="#E81D25" stroke="#010101" stroke-miterlimit="10" stroke-width="2"/><circle cx="374" cy="26.6" r="9.9" fill="#83A28A" stroke="#010101" stroke-miterlimit="10" stroke-width="2"/></g><text fill="#414042" font-family="'ArialMT'" font-size="36" transform="matrix(0.9822 0 0 1 47.2573 20)">Feature</text></g><g id="Body"><path id="Placeholder" fill="#FFF" stroke="#000" stroke-miterlimit="10" stroke-width="2" d="M6.3,53.2h442.1l0,0v338.7 c0,2.3-1.8,4.1-4.1,4.1H10.4c-2.3,0-4.1-1.8-4.1-4.1L6.3,53.2L6.3,53.2z"/><g id="Feature_2_1_"><ellipse cx="349.1" cy="301.6" fill="#F1F2F2" stroke="#000" stroke-miterlimit="10" stroke-width="2" rx="57.6" ry="57.7"/><path fill="#FFF" stroke="#000" stroke-miterlimit="10" stroke-width="2" d="M389.9,322.5h-81.5c-0.4,0-0.7-0.3-0.7-0.7 c0-0.2,0-0.3,0.1-0.4l15.1-22.4c0.5-0.6,1.3-0.7,1.9-0.3c0.1,0.1,0.2,0.2,0.3,0.3l15.1,16.9c0.2,0.3,0.7,0.4,1,0.1l0.1-0.1 l22.9-34.2c0.4-0.7,1.3-0.9,1.9-0.5c0.2,0.1,0.3,0.3,0.5,0.5l24.2,39.9c0.1,0.4-0.1,0.7-0.5,0.8C390,322.5,390,322.5,389.9,322.5z"/><line x1="255.9" x2="60.2" y1="283.8" y2="283.8" fill="none" stroke="#000" stroke-miterlimit="10" stroke-width="2"/><line x1="255.9" x2="76.6" y1="308.2" y2="308.2" fill="none" stroke="#000" stroke-miterlimit="10" stroke-width="2"/><line x1="255.9" x2="145.8" y1="332.7" y2="332.7" fill="none" stroke="#000" stroke-miterlimit="10" stroke-width="2"/></g><g id="Feature_1_1_"><ellipse cx="104.6" cy="147.6" fill="#F1F2F2" stroke="#000" stroke-miterlimit="10" stroke-width="2" rx="57.6" ry="57.7"/><path fill="#FFF" stroke="#000" stroke-miterlimit="10" stroke-width="2" d="M145.4,168.4H63.9c-0.4,0-0.7-0.3-0.7-0.7 c0-0.2,0-0.3,0.1-0.4l15.1-22.4c0.5-0.6,1.3-0.7,1.9-0.3c0.1,0.1,0.2,0.2,0.3,0.3l15.1,16.9c0.2,0.3,0.7,0.4,1,0.1l0.1-0.1 l22.9-34.2c0.4-0.7,1.3-0.9,1.9-0.5c0.2,0.1,0.3,0.3,0.5,0.5l24,39.8C146,167.8,145.8,168.2,145.4,168.4L145.4,168.4z"/><line x1="198.8" x2="394.4" y1="128.7" y2="128.7" fill="none" stroke="#000" stroke-miterlimit="10" stroke-width="2"/><line x1="198.8" x2="378.1" y1="153.2" y2="153.2" fill="none" stroke="#000" stroke-miterlimit="10" stroke-width="2"/><line x1="198.8" x2="308.8" y1="177.7" y2="177.7" fill="none" stroke="#000" stroke-miterlimit="10" stroke-width="2"/></g></g></svg>