<svg xmlns="http://www.w3.org/2000/svg" xmlns:xlink="http://www.w3.org/1999/xlink" id="Layer_1" x="0" y="0" enable-background="new 0 0 455 400" version="1.1" viewBox="0 0 455 400" xml:space="preserve"><metadata><sfw xmlns="http://ns.adobe.com/SaveForWeb/1.0/"><slices/><sliceSourceBounds width="443.9" height="397.2" x="5.5" y="-.6" bottomLeftOrigin="true"/><optimizationSettings/></sfw></metadata><g id="Header"><path fill="#FFF" stroke="#010101" stroke-miterlimit="10" stroke-width="2" d="M18.7,4.4h417.5c6.8,0,12.2,5.4,12.2,12.2v36.6 l0,0H6.5l0,0V16.7C6.5,9.9,12,4.4,18.7,4.4z"/><g><circle cx="402.6" cy="26.6" r="9.9" fill="#ECC85E" stroke="#010101" stroke-miterlimit="10" stroke-width="2"/><circle cx="346.2" cy="26.6" r="9.9" fill="#E81D25" stroke="#010101" stroke-miterlimit="10" stroke-width="2"/><circle cx="374" cy="26.6" r="9.9" fill="#83A28A" stroke="#010101" stroke-miterlimit="10" stroke-width="2"/></g><text fill="#414042" font-family="'ArialMT'" font-size="36" transform="matrix(0.9822 0 0 1 47.2573 20)">HomePage</text></g><g id="Body_1_"><g id="Placeholder-2"><path fill="#EFEFEF" stroke="#000" stroke-miterlimit="10" stroke-width="2" d="M6.5,53.2h441.9l0,0v342.3 c0,2.3-1.8,4.1-4.1,4.1H10.6c-2.2,0-4.1-1.8-4.1-4.1V53.2L6.5,53.2z"/></g><g id="Button"><path fill="#EA7171" stroke="#000" stroke-miterlimit="10" stroke-width="2" d="M177.4,333.6h98.1c2.2,0,3.9,1.8,3.9,4v16.8 c0,2.2-1.8,4-3.9,4h-98.1c-2.2,0-3.9-1.8-3.9-4v-16.8C173.5,335.4,175.2,333.6,177.4,333.6z"/></g><g id="Text"><line x1="89.6" x2="175.6" y1="290.8" y2="290.8" fill="#6E7682" stroke="#000" stroke-miterlimit="10" stroke-width="2"/><line x1="187.2" x2="363.4" y1="290.8" y2="290.8" fill="#6E7682" stroke="#000" stroke-miterlimit="10" stroke-width="2"/><line x1="277.5" x2="363.4" y1="308.3" y2="308.3" fill="#6E7682" stroke="#000" stroke-miterlimit="10" stroke-width="2"/><line x1="89.6" x2="265.9" y1="308.3" y2="308.3" fill="#6E7682" stroke="#000" stroke-miterlimit="10" stroke-width="2"/></g><g id="Image"><path fill="#7FE5A1" stroke="#000" stroke-miterlimit="10" stroke-width="2" d="M345,265.6H108.1c-1.1,0-2-0.9-2-2.1 c0-0.4,0.1-0.8,0.3-1.1l43.8-65.6c1.2-1.9,3.8-2.4,5.6-1.1c0.3,0.2,0.6,0.4,0.8,0.7l43.6,49.5c0.7,0.9,2,0.9,2.9,0.2 c0.1-0.1,0.2-0.2,0.3-0.4L269.7,145c1.2-1.9,3.7-2.5,5.6-1.3c0.5,0.3,0.9,0.8,1.3,1.3l70.1,117.1c0.7,0.8,0.7,2.2-0.2,2.9 C346.1,265.5,345.6,265.6,345,265.6z"/></g><g id="Menu"><line x1="246.8" x2="295.7" y1="106.8" y2="106.8" fill="#EFEFEF" stroke="#000" stroke-miterlimit="10" stroke-width="6"/><line x1="369" x2="417.9" y1="106.8" y2="106.8" fill="#EFEFEF" stroke="#000" stroke-miterlimit="10" stroke-width="6"/><line x1="303.8" x2="360.8" y1="106.8" y2="106.8" fill="#EFEFEF" stroke="#000" stroke-miterlimit="10" stroke-width="6"/></g><g id="Logo"><line x1="35" x2="83.9" y1="106.8" y2="106.8" fill="#EFEFEF" stroke="#000" stroke-miterlimit="10" stroke-width="6"/></g></g></svg>