<svg xmlns="http://www.w3.org/2000/svg" xmlns:xlink="http://www.w3.org/1999/xlink" id="Layer_1" x="0" y="0" enable-background="new 0 0 455 400" version="1.1" viewBox="0 0 455 400" xml:space="preserve"><metadata><sfw xmlns="http://ns.adobe.com/SaveForWeb/1.0/"><slices/><sliceSourceBounds width="443.9" height="391.2" x="5.5" y="5.4" bottomLeftOrigin="true"/></sfw></metadata><g id="Header"><path fill="#FFF" stroke="#010101" stroke-miterlimit="10" stroke-width="2" d="M18.7,4.4h417.5c6.8,0,12.2,5.4,12.2,12.2v36.6 l0,0H6.5l0,0V16.7C6.5,9.9,12,4.4,18.7,4.4z"/><g><circle cx="402.6" cy="26.6" r="9.9" fill="#ECC85E" stroke="#010101" stroke-miterlimit="10" stroke-width="2"/><circle cx="346.2" cy="26.6" r="9.9" fill="#E81D25" stroke="#010101" stroke-miterlimit="10" stroke-width="2"/><circle cx="374" cy="26.6" r="9.9" fill="#83A28A" stroke="#010101" stroke-miterlimit="10" stroke-width="2"/></g><text fill="#414042" font-family="'ArialMT'" font-size="36" transform="matrix(1 0 0 1 33.565 20)">HomePage</text></g><g id="Body"><g id="Placeholder-2"><path fill="#E56161" stroke="#000" stroke-miterlimit="10" stroke-width="2.006" d="M6.5,53.2h441.9l0,0v336.4 c0,2.2-1.8,4-4.1,4H10.6c-2.2,0-4.1-1.8-4.1-4V53.2L6.5,53.2z"/></g><g id="Play_Icon"><path fill="#FFF" stroke="#000" stroke-miterlimit="10" stroke-width="3" d="M189.8,263.1v-27c0-3.7,5.1-6,9.2-4l30.3,13.5 l30.3,13.5c2.2,0.9,3.4,3.4,2.5,5.6c-0.4,1.2-1.4,2.1-2.5,2.5l-30.3,13.5l-30.3,13.5c-4.1,1.8-9.2-0.4-9.2-4L189.8,263.1 L189.8,263.1z"/></g><g id="Text"><line x1="165.3" x2="287.5" y1="184.8" y2="184.8" fill="#E56161" stroke="#000" stroke-miterlimit="10" stroke-width="3"/><line x1="124.6" x2="328.3" y1="156.5" y2="156.5" fill="#E56161" stroke="#000" stroke-miterlimit="10" stroke-width="3"/></g><g id="Menu"><line x1="303.8" x2="360.8" y1="97.7" y2="97.7" fill="#E56161" stroke="#000" stroke-miterlimit="10" stroke-width="6"/><line x1="369" x2="417.9" y1="97.7" y2="97.7" fill="#E56161" stroke="#000" stroke-miterlimit="10" stroke-width="6"/><line x1="246.8" x2="295.7" y1="97.7" y2="97.7" fill="#E56161" stroke="#000" stroke-miterlimit="10" stroke-width="6"/></g><g id="Logo"><line x1="35" x2="83.9" y1="97.7" y2="97.7" fill="#E56161" stroke="#000" stroke-miterlimit="10" stroke-width="6"/></g></g></svg>