<svg xmlns="http://www.w3.org/2000/svg" xmlns:xlink="http://www.w3.org/1999/xlink" id="Layer_1" x="0" y="0" enable-background="new 0 0 455 400" version="1.1" viewBox="0 0 455 400" xml:space="preserve"><metadata><sfw xmlns="http://ns.adobe.com/SaveForWeb/1.0/"><slices/><sliceSourceBounds width="443.9" height="390.6" x="5.5" y="6" bottomLeftOrigin="true"/></sfw></metadata><g id="Header"><path fill="#FFF" stroke="#010101" stroke-miterlimit="10" stroke-width="2" d="M18.7,4.4h417.5c6.8,0,12.2,5.4,12.2,12.2v36.6 l0,0H6.5l0,0V16.7C6.5,9.9,12,4.4,18.7,4.4z"/><g><circle cx="402.6" cy="26.6" r="9.9" fill="#ECC85E" stroke="#010101" stroke-miterlimit="10" stroke-width="2"/><circle cx="346.2" cy="26.6" r="9.9" fill="#E81D25" stroke="#010101" stroke-miterlimit="10" stroke-width="2"/><circle cx="374" cy="26.6" r="9.9" fill="#83A28A" stroke="#010101" stroke-miterlimit="10" stroke-width="2"/></g><text fill="#414042" font-family="'ArialMT'" font-size="36" transform="matrix(1 0 0 1 33.565 20)">HomePage</text></g><g id="Body"><g id="Placeholder-2_1_"><path fill="#FFF" stroke="#000" stroke-miterlimit="10" stroke-width="2" d="M6.5,53.2h441.9l0,0V389c0,2.2-1.8,4-4.1,4 H10.6c-2.2,0-4.1-1.8-4.1-4V53.2L6.5,53.2z"/></g><g id="Video"><path fill="#E56161" stroke="#000" stroke-miterlimit="10" stroke-width="3" d="M88,198.7h277c2.2,0,4.1,1.8,4.1,4v153.6 c0,2.2-1.8,4-4.1,4H88c-2.2,0-4.1-1.8-4.1-4V202.7C83.9,200.5,85.7,198.7,88,198.7z"/><path fill="#FFF" stroke="#000" stroke-miterlimit="10" stroke-width="3" d="M202.4,279.5v-17.7c0.4-2.2,2.5-3.6,4.8-3.2 c0.5,0.1,0.9,0.3,1.4,0.5l20,8.9l20,8.9c1.5,0.4,2.4,2,2,3.5c-0.3,1-1,1.7-2,2l-20,8.9l-20,8.9c-1.9,1.2-4.4,0.5-5.6-1.4 c-0.3-0.4-0.4-0.9-0.5-1.3V279.5z"/></g><g id="Text"><line x1="83.9" x2="222.4" y1="152.2" y2="152.2" fill="#FFF" stroke="#000" stroke-miterlimit="10" stroke-width="2"/><line x1="246.8" x2="369" y1="152.2" y2="152.2" fill="#FFF" stroke="#000" stroke-miterlimit="10" stroke-width="2"/><line x1="149" x2="303.8" y1="172.4" y2="172.4" fill="#FFF" stroke="#000" stroke-miterlimit="10" stroke-width="2"/></g><g id="Menu_1_"><line x1="246.8" x2="295.7" y1="97.7" y2="97.7" fill="#FFF" stroke="#000" stroke-miterlimit="10" stroke-width="6"/><line x1="369" x2="417.9" y1="97.7" y2="97.7" fill="#FFF" stroke="#000" stroke-miterlimit="10" stroke-width="6"/><line x1="303.8" x2="360.8" y1="97.7" y2="97.7" fill="#FFF" stroke="#000" stroke-miterlimit="10" stroke-width="6"/></g><g id="Logo_1_"><line x1="35" x2="83.9" y1="97.7" y2="97.7" fill="#FFF" stroke="#000" stroke-miterlimit="10" stroke-width="6"/></g></g></svg>