<svg xmlns="http://www.w3.org/2000/svg" xmlns:xlink="http://www.w3.org/1999/xlink" id="Layer_1" width="800" height="800" x="0" y="0" enable-background="new 0 0 800 800" version="1.0" viewBox="0 0 800 800" xml:space="preserve"><g id="Header"><path fill="#BCC2C6" d="M33.1,34.5h736.2c8.5,0,16.1,3.5,21.7,9l0,0c5.6,5.6,9,13.2,9,21.7v654.6c0,8.4-3.5,16.1-9,21.7l0,0 c-5.6,5.6-13.2,9-21.7,9H33.1c-8.5,0-16.1-3.5-21.7-9l0,0c-5.6-5.6-9-13.2-9-21.7V65.2c0-8.4,3.5-16.1,9-21.7l0,0 C16.9,38,24.6,34.5,33.1,34.5"/><path fill="#EBEFF0" d="M788.9,65.2v654.6c0,12.3-8.6,19.6-19.6,19.6H33.1c-11,0-19.6-7-19.6-19.6V65.2c0-12.8,8.6-19.6,19.6-19.6 h736.2C780.2,45.6,788.9,52.7,788.9,65.2"/><path fill="#94A4A5" d="M677.6,72.3c7.8,0,14.2,6.4,14.2,14.2s-6.3,14.2-14.2,14.2c-7.9,0-14.2-6.3-14.2-14.2 C663.4,78.7,669.7,72.3,677.6,72.3 M722.1,72.3c7.8,0,14.2,6.4,14.2,14.2s-6.4,14.2-14.2,14.2c-7.8,0-14.2-6.3-14.2-14.2 C707.9,78.7,714.3,72.3,722.1,72.3z M633,72.3c7.8,0,14.2,6.4,14.2,14.2s-6.3,14.2-14.2,14.2c-7.8,0-14.2-6.4-14.2-14.2 S625.2,72.3,633,72.3z"/><text fill="#93A2A3" font-family="'NexaBold'" font-size="44.075" transform="matrix(1 0 0 1 178.6968 85.2969)">ANALITYCS</text></g><g id="Body"><path fill="#BCC2C6" d="M29.1,131.1h744.3c7.3,0,14,3,18.8,7.8c4.8,4.8,7.8,11.5,7.8,18.8v572.7c0,7.3-3,14-7.8,18.8 c-4.8,4.8-11.5,7.8-18.8,7.8H29.1c-7.3,0-14-3-18.8-7.8c-4.8-4.8-7.8-11.5-7.8-18.8V157.8c0-7.3,3-14,7.8-18.8 C15.1,134.1,21.7,131.1,29.1,131.1"/><path fill="#FFF" fill-rule="evenodd" d="M29.1,142.2c-4.1,0-8,1.6-11,4.6c-2.9,2.9-4.6,6.8-4.6,11v572.7 c0,4.1,1.7,8,4.6,11c2.9,2.9,6.8,4.6,11,4.6h744.3c4.1,0,8-1.7,10.9-4.6c2.9-2.9,4.6-6.8,4.6-11V157.8c0-4.1-1.6-8-4.6-11 c-2.9-2.9-6.8-4.6-10.9-4.6H29.1z" clip-rule="evenodd"/><polygon fill="#34495E" fill-rule="evenodd" points="565.3 477.1 565.3 420.9 632.9 420.9 632.9 542.7 169.5 542.7 169.5 451.4 226 451.4 226 419.8 282.6 419.8 282.6 362.5 350.2 362.5 350.2 461.7 395.6 461.7 395.6 319.2 463.3 319.2 463.3 381.2 519.9 381.2 519.9 477.1" clip-rule="evenodd"/><rect width="45.4" height="69" x="180.6" y="462.5" fill="#22A6EF" fill-rule="evenodd" clip-rule="evenodd"/><rect width="45.4" height="100.6" x="237.2" y="430.9" fill="#F65C4C" fill-rule="evenodd" clip-rule="evenodd"/><rect width="45.4" height="157.9" x="293.7" y="373.6" fill="#F29B12" fill-rule="evenodd" clip-rule="evenodd"/><rect width="45.4" height="58.7" x="350.2" y="472.8" fill="#27CABF" fill-rule="evenodd" clip-rule="evenodd"/><rect width="45.4" height="201.2" x="406.8" y="330.3" fill="#22A6EF" fill-rule="evenodd" clip-rule="evenodd"/><rect width="45.4" height="139.2" x="463.3" y="392.3" fill="#F65C4C" fill-rule="evenodd" clip-rule="evenodd"/><rect width="45.4" height="43.3" x="519.9" y="488.2" fill="#F29B12" fill-rule="evenodd" clip-rule="evenodd"/><rect width="45.4" height="99.5" x="576.4" y="432.1" fill="#27CABF" fill-rule="evenodd" clip-rule="evenodd"/><path fill="#BCC2C6" fill-rule="evenodd" d="M244.4,220h313.7c4.1,0,7.4,3.3,7.4,7.5c0,4.1-3.3,7.4-7.4,7.4 H244.4c-4.1,0-7.4-3.3-7.4-7.4C236.9,223.3,240.3,220,244.4,220" clip-rule="evenodd"/><path fill="#BCC2C6" fill-rule="evenodd" d="M127,646.3h548.3c4.1,0,7.4,3.3,7.4,7.5l0,0 c0,4.1-3.3,7.4-7.4,7.4H127c-4.1,0-7.4-3.3-7.4-7.4l0,0C119.6,649.6,123,646.3,127,646.3" clip-rule="evenodd"/><path fill="#BCC2C6" fill-rule="evenodd" d="M127,683.7h548.3c4.1,0,7.4,3.3,7.4,7.4v0c0,4.1-3.3,7.4-7.4,7.4 H127c-4.1,0-7.4-3.3-7.4-7.4v0C119.6,687.1,123,683.7,127,683.7" clip-rule="evenodd"/><path fill="#BCC2C6" fill-rule="evenodd" d="M127,608.9h266.7c4.1,0,7.5,3.3,7.5,7.4l0,0 c0,4.1-3.3,7.5-7.5,7.5H127c-4.1,0-7.4-3.3-7.4-7.5l0,0C119.6,612.2,123,608.9,127,608.9" clip-rule="evenodd"/><path fill="#34495E" fill-rule="evenodd" d="M117.3,542.7h567.8c3.1,0,5.6-2.5,5.6-5.6c0-3.1-2.5-5.6-5.6-5.6 H117.3c-3.1,0-5.6,2.5-5.6,5.6C111.7,540.2,114.2,542.7,117.3,542.7" clip-rule="evenodd"/></g></svg>